<svg width="24" height="24" viewBox="0 0 24 24" fill="none" xmlns="http://www.w3.org/2000/svg">
<path d="M10.9985 5C9.89397 5 8.99854 5.89543 8.99854 7V15C8.99854 16.1046 9.89397 17 10.9985 17L16 17C17.1046 17 18 16.1046 18 15V9.5H17.9985V8.41421C17.9985 8.01639 17.8405 7.63486 17.5592 7.35355L15.645 5.43934C15.3637 5.15804 14.9821 5 14.5843 5H10.9985ZM16 16L10.9985 16C10.4463 16 9.99854 15.5523 9.99854 15V7C9.99854 6.44772 10.4463 6 10.9985 6H13.9985V7.5C13.9985 8.32843 14.6701 9 15.4985 9H16.9985V10.0614L17 10.061V15C17 15.5523 16.5523 16 16 16ZM16.7914 8H15.4985C15.2224 8 14.9985 7.77614 14.9985 7.5V6.20711L16.7914 8ZM7 8C7 7.44772 7.44772 7 8 7V15C8 16.6569 9.34315 18 11 18L16 18C16 18.5523 15.5523 19 15 19H10.7895C8.6966 19 7 17.3034 7 15.2105V8Z" fill="#EC008C"/>
</svg>
